<?xml version="1.0" encoding="utf-8" ?><svg xmlns="http://www.w3.org/2000/svg" xmlns:xlink="http://www.w3.org/1999/xlink" width="1280" height="832" viewBox="0 0 1280 832"><path fill="#F5F5F0" d="M437.664 469.7C413.822 494.605 370.111 502.463 341.452 479.759C330.819 471.335 324.911 455.1 324.463 441.665C322.545 384.138 373.04 340.792 428.134 338.099C456.964 336.668 478.814 344.714 500.028 363.745C487.495 375.867 476.086 385.765 472.551 403.435C458.557 393.281 445.587 386.564 427.631 386.155C413.11 386.068 401.906 390.636 391.443 400.454C374.245 416.592 371.7 450.41 402.546 449.593C411 449.37 418.05 446.774 424.11 440.522C428.626 435.863 432.986 426.052 426.795 420.915C418.809 414.666 404.732 416.803 395.356 417.566C402.086 413.914 410.528 411.306 417.765 408.752C441.622 400.332 473.029 400.405 479.687 430.704C480.521 433.679 479.604 434.201 480.875 436.787C485.279 424.268 489.615 411.726 493.88 399.16C501.174 377.422 505.611 354.989 528.524 343.961C540.825 338.041 554.584 339.324 568.105 339.416C557.094 375.412 543.069 414.67 531.065 450.59C548.215 450.573 567.717 450.139 584.706 450.627C578.677 468.231 574.186 490.522 551.244 492.018C541.393 492.66 531.366 492.352 521.481 492.354L462.674 492.408C465.619 482.061 473.671 461.673 475.159 453.299C463.523 473.533 453.316 484.532 431.172 493.051C433.478 486.629 437.013 476.101 439.699 470.226L437.664 469.7Z"/><path fill="#514F50" d="M479.687 430.704C480.521 433.679 479.604 434.201 480.875 436.787C480.62 438.034 480.408 438.977 480.064 440.205L479.198 439.847C479.475 436.719 479.383 433.523 479.687 430.704Z"/><path fill="#E8E8E0" d="M475.159 453.299C475.188 451.819 474.97 450.53 476.518 450.147C476.582 451.687 476.626 452.507 475.159 453.299Z"/><path fill="#B7B8B7" d="M480.064 440.205C479.876 441.244 479.26 444.122 478.403 444.738C477.386 444.316 478.89 440.464 479.198 439.847L480.064 440.205Z"/><path fill="#1F1B1C" d="M437.664 469.7C438.21 469.071 439.422 467.438 440.18 467.276C440.877 467.537 439.845 469.791 439.699 470.226L437.664 469.7Z"/><path fill="#F5F5F0" d="M687.808 339.229L733.123 339.251C746.238 339.266 757.765 338.89 770.793 340.948C809.816 347.114 824.628 374.674 817.845 412.216C817.335 413.682 816.937 415.418 816.498 416.949C815.829 418.462 813.735 425.581 812.52 428.653C810.23 433.125 780.943 432.161 777.145 427.168C776.241 425.979 773.693 424.151 772.403 422.714C772.616 415.716 773.128 410.669 770.444 403.915C762.267 383.331 736.941 386.03 721.708 396.53C718.217 399.036 713.019 405.846 708.995 407.064C691.797 412.271 675.631 417.763 658.93 424.492C668.446 396.156 679.18 367.866 687.808 339.229Z"/><path fill="#F5F5F0" d="M887.243 402.162C890.629 401.537 902.574 401.767 906.547 401.781L938.135 401.675C925.23 414.375 920.645 422.572 919.521 440.555C905.208 440.454 886.12 439.695 871.859 441.049C866.282 441.578 862.339 446.102 859.53 450.768C882.092 450.492 905.194 450.766 927.798 450.786C916.926 461.447 911.325 469.263 907.106 484.149L906.166 492.393C888.937 492.297 820.251 494.1 809.261 490.482C805.122 489.12 801.275 486.533 799.359 482.505C794.697 472.709 806.941 446.551 810.554 435.948C839.114 425.41 857.584 405.938 887.243 402.162Z"/><path fill="#F5F5F0" d="M575.588 492.219C586.332 462.06 596.742 431.782 606.816 401.392C612.443 384.619 617.593 368.486 624.37 352.183C634.496 327.822 680.027 337.033 674.059 361.822C668.958 383.01 658.916 405.511 652.726 426.817C635.636 433.827 632.217 434.273 615.154 438.327C612.386 439.422 610.968 438.626 608.199 439.788C620.171 447.321 634.402 445.817 647.475 442.797C644.994 449.79 642.582 456.813 639.857 463.716C627.758 494.354 602.981 492.2 575.588 492.219Z"/><path fill="#1F1B1C" d="M608.199 439.788C607.573 439.479 606.287 438.921 606.038 438.16C606.031 438.138 605.954 437.884 606.073 437.877C608.701 437.733 612.443 438.129 615.154 438.327C612.386 439.422 610.968 438.626 608.199 439.788Z"/><path fill="#F5F5F0" d="M693.821 432.198C700.526 431.514 712.749 430.299 717.068 436.762C720.759 442.287 712.892 447.221 709.189 449.407C737.806 449.553 782.692 444.574 809.529 436.249C797.178 455.435 779.317 469.958 758.94 479.901C729.344 493.549 708.315 492.513 676.666 492.376C663.095 492.318 649.404 492.593 635.766 492.128C642.139 476.321 648.286 457 653.87 440.714C668.109 435.665 678.686 433.617 693.821 432.198Z"/><path fill="#F5F5F0" d="M819.129 412.764C822.278 401.827 826.16 391.182 829.835 380.435C834.868 365.719 838.612 346.42 855.818 341.361C864.594 338.782 875.48 340.14 884.607 339.804C889.099 339.638 894 339.814 898.523 339.821L961.221 339.783C947.643 352.623 941.746 364.625 941.191 383.765C941.173 384.389 941.159 385.013 941.149 385.637C923.682 385.533 900.724 384.842 883.602 385.607C876.953 390.334 874.554 392.842 877.372 400.898C876.131 403.032 873.063 403.515 870.344 404.154C850.083 408.911 835.819 423.545 814.853 428.56C813.82 428.845 813.591 428.754 812.52 428.653C813.735 425.581 815.829 418.462 816.498 416.949C816.937 415.418 817.335 413.682 817.845 412.216L819.129 412.764Z"/><path fill="#B7B8B7" d="M812.52 428.653C813.735 425.581 815.829 418.462 816.498 416.949L817.519 417.678C816.75 420.882 813.604 425.668 814.853 428.56C813.82 428.845 813.591 428.754 812.52 428.653Z"/><path fill="#514F50" d="M816.498 416.949C816.937 415.418 817.335 413.682 817.845 412.216L819.129 412.764C818.297 414.874 818.119 415.561 817.519 417.678L816.498 416.949Z"/></svg>
